<svg xmlns="http://www.w3.org/2000/svg" viewBox="0 0 128 128" role="img" aria-label="Opus Strike logo candidate 3 voxel bolt">
  <defs>
    <linearGradient id="voxel-top" x1="34" y1="25" x2="93" y2="52" gradientUnits="userSpaceOnUse">
      <stop stop-color="#f8ffff"/>
      <stop offset=".46" stop-color="#5af1ff"/>
      <stop offset="1" stop-color="#ffcf61"/>
    </linearGradient>
    <linearGradient id="voxel-left" x1="34" y1="47" x2="64" y2="101" gradientUnits="userSpaceOnUse">
      <stop stop-color="#39eaff"/>
      <stop offset="1" stop-color="#077aff"/>
    </linearGradient>
    <linearGradient id="voxel-right" x1="64" y1="47" x2="95" y2="101" gradientUnits="userSpaceOnUse">
      <stop stop-color="#ffbb4f"/>
      <stop offset="1" stop-color="#ff521c"/>
    </linearGradient>
    <filter id="voxel-shadow" x="-25%" y="-25%" width="150%" height="150%">
      <feDropShadow dx="0" dy="5" stdDeviation="3" flood-color="#000000" flood-opacity=".55"/>
    </filter>
  </defs>
  <rect width="128" height="128" fill="#111315"/>
  <g filter="url(#voxel-shadow)">
    <path d="M64 20L101 42L64 64L27 42L64 20Z" fill="#05070b"/>
    <path d="M64 25L93 42L64 59L35 42L64 25Z" fill="url(#voxel-top)"/>
    <path d="M35 47L64 64V104L35 86V47Z" fill="#05070b"/>
    <path d="M40 55L61 67V95L40 82V55Z" fill="url(#voxel-left)"/>
    <path d="M93 47L64 64V104L93 86V47Z" fill="#05070b"/>
    <path d="M88 55L67 67V95L88 82V55Z" fill="url(#voxel-right)"/>
  </g>
  <path d="M71 30L52 65H66L56 99L81 56H67L71 30Z" fill="#05070b"/>
  <path d="M75 31L58 62H71L63 90L84 53H71L75 31Z" fill="#f8ffff"/>
  <rect x="20" y="67" width="8" height="8" rx="2" fill="#38eaff"/>
  <rect x="101" y="30" width="7" height="7" rx="2" fill="#ffbd54"/>
  <rect x="96" y="95" width="6" height="6" rx="2" fill="#ff5a1f"/>
  <rect x="28" y="27" width="5" height="5" rx="1.5" fill="#72fbff"/>
</svg>
