<svg xmlns="http://www.w3.org/2000/svg" viewBox="0 0 128 128" role="img" aria-label="Opus Strike logo candidate 4 monogram blade">
  <defs>
    <linearGradient id="mono-cyan" x1="24" y1="22" x2="90" y2="101" gradientUnits="userSpaceOnUse">
      <stop stop-color="#7effff"/>
      <stop offset="1" stop-color="#0875ff"/>
    </linearGradient>
    <linearGradient id="mono-orange" x1="38" y1="19" x2="104" y2="104" gradientUnits="userSpaceOnUse">
      <stop stop-color="#ffdf73"/>
      <stop offset="1" stop-color="#ff501d"/>
    </linearGradient>
    <linearGradient id="mono-white" x1="54" y1="17" x2="80" y2="111" gradientUnits="userSpaceOnUse">
      <stop stop-color="#ffffff"/>
      <stop offset=".5" stop-color="#8df8ff"/>
      <stop offset="1" stop-color="#1f85ff"/>
    </linearGradient>
    <filter id="mono-glow" x="-35%" y="-35%" width="170%" height="170%">
      <feGaussianBlur stdDeviation="2.2" result="blur"/>
      <feColorMatrix in="blur" values="0 0 0 0 0.11 0 0 0 0 0.7 0 0 0 0 1 0 0 0 .55 0"/>
      <feMerge>
        <feMergeNode/>
        <feMergeNode in="SourceGraphic"/>
      </feMerge>
    </filter>
  </defs>
  <rect width="128" height="128" fill="#111315"/>
  <path d="M29 26H77L90 39L78 52H49L43 58L49 64H76L98 86L79 105H31L19 92L32 79H63L69 73L63 67H36L15 45L29 26Z" fill="#05070b"/>
  <path d="M33 34H74L80 40L73 47H45L32 60L45 72H72L86 86L75 97H35L29 91L36 84H65L79 71L65 58H39L27 46L33 34Z" fill="url(#mono-cyan)"/>
  <path d="M68 34H74L80 40L73 47H57L50 58H65L79 71L65 84H36L29 91L35 97H75L86 86L72 72H45L32 60L45 47H55L68 34Z" fill="url(#mono-orange)" opacity=".88"/>
  <path d="M70 15H84L59 113H45L70 15Z" fill="#05070b"/>
  <path d="M74 16H82L57 112H49L74 16Z" fill="url(#mono-white)" filter="url(#mono-glow)"/>
  <path d="M28 34L18 45L26 53L36 43L28 34Z" fill="#7effff"/>
  <path d="M91 77L101 87L90 98L80 88L91 77Z" fill="#ff611f"/>
</svg>
