<svg xmlns="http://www.w3.org/2000/svg" viewBox="0 0 128 128" role="img" aria-label="Opus Strike logo candidate 1 prism shield">
  <defs>
    <linearGradient id="shield-cyan" x1="27" y1="17" x2="80" y2="99" gradientUnits="userSpaceOnUse">
      <stop stop-color="#7efcff"/>
      <stop offset="1" stop-color="#1687ff"/>
    </linearGradient>
    <linearGradient id="shield-orange" x1="47" y1="19" x2="101" y2="104" gradientUnits="userSpaceOnUse">
      <stop stop-color="#ffe278"/>
      <stop offset="1" stop-color="#ff5b1a"/>
    </linearGradient>
    <linearGradient id="shield-dark" x1="28" y1="14" x2="100" y2="112" gradientUnits="userSpaceOnUse">
      <stop stop-color="#1a2027"/>
      <stop offset="1" stop-color="#07090d"/>
    </linearGradient>
    <filter id="shield-glow" x="-40%" y="-40%" width="180%" height="180%">
      <feGaussianBlur stdDeviation="2.4" result="blur"/>
      <feColorMatrix in="blur" values="0 0 0 0 0.14 0 0 0 0 0.72 0 0 0 0 1 0 0 0 0.55 0"/>
      <feMerge>
        <feMergeNode/>
        <feMergeNode in="SourceGraphic"/>
      </feMerge>
    </filter>
  </defs>
  <rect width="128" height="128" fill="#111315"/>
  <path d="M64 9L103 25L96 82L64 116L32 82L25 25L64 9Z" fill="#05070b"/>
  <path d="M64 16L95 29L89 77L64 104L39 77L33 29L64 16Z" fill="url(#shield-dark)" stroke="url(#shield-cyan)" stroke-width="4" stroke-linejoin="round"/>
  <path d="M64 16L95 29L89 77L64 104V16Z" fill="url(#shield-orange)" opacity=".2"/>
  <path d="M72 23L48 67H65L54 103L86 53H68L72 23Z" fill="#05070b"/>
  <path d="M76 25L53 65H70L60 96L88 51H71L76 25Z" fill="url(#shield-orange)" filter="url(#shield-glow)"/>
  <path d="M38 34L62 23L56 36L42 42L38 34Z" fill="url(#shield-cyan)"/>
  <path d="M91 77L66 100L72 83L88 70L91 77Z" fill="url(#shield-orange)"/>
</svg>
