<svg xmlns="http://www.w3.org/2000/svg" viewBox="0 0 128 128" role="img" aria-label="Opus Strike logo candidate 2 orbit core">
  <defs>
    <linearGradient id="orbit-cyan" x1="16" y1="26" x2="105" y2="95" gradientUnits="userSpaceOnUse">
      <stop stop-color="#72fbff"/>
      <stop offset="1" stop-color="#1394ff"/>
    </linearGradient>
    <linearGradient id="orbit-orange" x1="26" y1="98" x2="107" y2="31" gradientUnits="userSpaceOnUse">
      <stop stop-color="#ff6a1f"/>
      <stop offset="1" stop-color="#ffe17a"/>
    </linearGradient>
    <radialGradient id="orbit-core" cx="0" cy="0" r="1" gradientTransform="matrix(0 32 -32 0 64 64)" gradientUnits="userSpaceOnUse">
      <stop stop-color="#f8ffff"/>
      <stop offset=".38" stop-color="#58efff"/>
      <stop offset="1" stop-color="#0a75ff"/>
    </radialGradient>
    <filter id="orbit-soft-glow" x="-45%" y="-45%" width="190%" height="190%">
      <feGaussianBlur stdDeviation="3.2" result="blur"/>
      <feColorMatrix in="blur" values="0 0 0 0 0.1 0 0 0 0 0.74 0 0 0 0 1 0 0 0 .45 0"/>
      <feMerge>
        <feMergeNode/>
        <feMergeNode in="SourceGraphic"/>
      </feMerge>
    </filter>
  </defs>
  <rect width="128" height="128" fill="#111315"/>
  <ellipse cx="64" cy="64" rx="48" ry="18" fill="none" stroke="#05070b" stroke-width="9" transform="rotate(-27 64 64)"/>
  <ellipse cx="64" cy="64" rx="48" ry="18" fill="none" stroke="url(#orbit-cyan)" stroke-width="5" stroke-linecap="round" stroke-dasharray="95 28" transform="rotate(-27 64 64)"/>
  <ellipse cx="64" cy="64" rx="49" ry="18" fill="none" stroke="#05070b" stroke-width="9" transform="rotate(31 64 64)"/>
  <ellipse cx="64" cy="64" rx="49" ry="18" fill="none" stroke="url(#orbit-orange)" stroke-width="5" stroke-linecap="round" stroke-dasharray="76 45" stroke-dashoffset="32" transform="rotate(31 64 64)"/>
  <path d="M64 29L94 64L64 99L34 64L64 29Z" fill="#05070b"/>
  <path d="M64 37L86 64L64 91L42 64L64 37Z" fill="url(#orbit-core)" filter="url(#orbit-soft-glow)"/>
  <path d="M64 47L78 64L64 81L50 64L64 47Z" fill="#12181f"/>
  <circle cx="99" cy="43" r="6" fill="url(#orbit-orange)"/>
  <circle cx="25" cy="82" r="5" fill="url(#orbit-cyan)"/>
  <circle cx="64" cy="64" r="5" fill="#f8ffff"/>
</svg>
