<svg xmlns="http://www.w3.org/2000/svg" viewBox="0 0 100 100" role="img" aria-label="Slop Heroes icon">
  <defs>
    <linearGradient id="mark-cyan" x1="16" y1="15" x2="67" y2="58" gradientUnits="userSpaceOnUse">
      <stop stop-color="#65fbff"/>
      <stop offset="1" stop-color="#08a9ff"/>
    </linearGradient>
    <linearGradient id="mark-orange" x1="36" y1="42" x2="85" y2="82" gradientUnits="userSpaceOnUse">
      <stop stop-color="#ffd26a"/>
      <stop offset="1" stop-color="#f15a24"/>
    </linearGradient>
    <linearGradient id="mark-slash" x1="40" y1="13" x2="58" y2="88" gradientUnits="userSpaceOnUse">
      <stop stop-color="#f8ffff"/>
      <stop offset="0.52" stop-color="#7af3ff"/>
      <stop offset="1" stop-color="#1378ff"/>
    </linearGradient>
  </defs>

  <path d="M22 48C25 26 44 18 64 25" stroke="url(#mark-cyan)" stroke-width="10" stroke-linecap="round"/>
  <path d="M78 52C75 74 56 82 36 75" stroke="url(#mark-orange)" stroke-width="10" stroke-linecap="round"/>
  <path d="M45 12H56L43 88H32L45 12Z" fill="#05070b"/>
  <path d="M48 13H56L43 87H35L48 13Z" fill="url(#mark-slash)"/>
  <path d="M60 19L79 28L63 39L71 50L53 42L60 19Z" fill="url(#mark-orange)" stroke="#05070b" stroke-width="3" stroke-linejoin="round"/>
  <circle cx="22" cy="27" r="3" fill="#65fbff"/>
  <circle cx="78" cy="73" r="3" fill="#f97316"/>
</svg>
