<svg xmlns="http://www.w3.org/2000/svg" viewBox="0 0 128 128" width="128" height="128" role="img" aria-label="Slop Heroes logo">
  <defs>
    <linearGradient id="v2-top" x1="27" y1="22" x2="101" y2="57" gradientUnits="userSpaceOnUse">
      <stop stop-color="#f9ffff"/>
      <stop offset=".42" stop-color="#60f4ff"/>
      <stop offset="1" stop-color="#ffd05b"/>
    </linearGradient>
    <linearGradient id="v2-left" x1="25" y1="48" x2="66" y2="111" gradientUnits="userSpaceOnUse">
      <stop stop-color="#57efff"/>
      <stop offset=".52" stop-color="#20b9ff"/>
      <stop offset="1" stop-color="#126fff"/>
    </linearGradient>
    <linearGradient id="v2-right" x1="63" y1="50" x2="105" y2="111" gradientUnits="userSpaceOnUse">
      <stop stop-color="#ffcf68"/>
      <stop offset=".48" stop-color="#ff9435"/>
      <stop offset="1" stop-color="#ff521d"/>
    </linearGradient>
    <linearGradient id="v2-bolt" x1="62" y1="24" x2="78" y2="102" gradientUnits="userSpaceOnUse">
      <stop stop-color="#ffffff"/>
      <stop offset=".55" stop-color="#e9ffff"/>
      <stop offset="1" stop-color="#7df6ff"/>
    </linearGradient>
    <filter id="v2-bolt-glow" x="-45%" y="-45%" width="190%" height="190%">
      <feGaussianBlur stdDeviation="2" result="blur"/>
      <feColorMatrix in="blur" values="0 0 0 0 .25 0 0 0 0 .9 0 0 0 0 1 0 0 0 .42 0"/>
      <feMerge>
        <feMergeNode/>
        <feMergeNode in="SourceGraphic"/>
      </feMerge>
    </filter>
  </defs>

  <g transform="matrix(1.361702 0 0 1.230769 -23.148936 -14.769231)">
    <g>
      <path d="M64 12L111 39L111 89L64 116L17 89L17 39L64 12Z" fill="#05070b"/>

      <path d="M64 22L99 42L64 62L29 42L64 22Z" fill="url(#v2-top)"/>
      <path d="M29 42L64 62L64 103L29 83V42Z" fill="url(#v2-left)"/>
      <path d="M99 42L64 62L64 103L99 83V42Z" fill="url(#v2-right)"/>

      <path d="M64 22L99 42L64 62L29 42L64 22Z" fill="none" stroke="#05070b" stroke-width="7" stroke-linejoin="round"/>
      <path d="M29 42L64 62L64 103L29 83V42Z" fill="none" stroke="#05070b" stroke-width="7" stroke-linejoin="round"/>
      <path d="M99 42L64 62L64 103L99 83V42Z" fill="none" stroke="#05070b" stroke-width="7" stroke-linejoin="round"/>

      <path d="M64 22L99 42L64 62L29 42L64 22Z" fill="url(#v2-top)"/>
      <path d="M29 42L64 62V103L29 83V42Z" fill="url(#v2-left)"/>
      <path d="M99 42L64 62V103L99 83V42Z" fill="url(#v2-right)"/>

      <path d="M64 62V103" stroke="#05070b" stroke-width="5" stroke-linecap="round"/>
      <path d="M29 42L64 62L99 42" fill="none" stroke="#05070b" stroke-width="5" stroke-linecap="round" stroke-linejoin="round"/>
      <path d="M39 48L64 63L89 48" fill="none" stroke="#f8ffff" stroke-width="3" stroke-linecap="round" stroke-linejoin="round" opacity=".35"/>
      <path d="M39 58L58 69V91L39 80V58Z" fill="#9dfcff" opacity=".28"/>
      <path d="M89 58L70 69V91L89 80V58Z" fill="#ffe073" opacity=".28"/>
    </g>

    <g transform="translate(-7 0)">
      <path d="M76 18L47 69H62L51 112L94 53H78L84 18H76Z" fill="#05070b"/>
      <path d="M76 28L56 64H71L62 95L86 56H72L76 28Z" fill="url(#v2-bolt)" filter="url(#v2-bolt-glow)"/>
      <path d="M66 78L62 95L86 56H78L66 78Z" fill="#ffcc62" opacity=".55"/>
    </g>
  </g>
</svg>
