<svg xmlns="http://www.w3.org/2000/svg" viewBox="0 0 100 100">
  <defs>
    <linearGradient id="slopCore" x1="18" y1="10" x2="82" y2="88" gradientUnits="userSpaceOnUse">
      <stop offset="0" stop-color="#caff5b"/>
      <stop offset="0.48" stop-color="#20d389"/>
      <stop offset="1" stop-color="#f97316"/>
    </linearGradient>
    <linearGradient id="slopSide" x1="42" y1="80" x2="86" y2="28" gradientUnits="userSpaceOnUse">
      <stop offset="0" stop-color="#0f8f68"/>
      <stop offset="1" stop-color="#0d5f5a"/>
    </linearGradient>
    <linearGradient id="slopSlash" x1="34" y1="8" x2="60" y2="88" gradientUnits="userSpaceOnUse">
      <stop offset="0" stop-color="#fff7ad"/>
      <stop offset="0.55" stop-color="#ffffff"/>
      <stop offset="1" stop-color="#48f0ff"/>
    </linearGradient>
  </defs>
  <rect width="100" height="100" rx="20" fill="#0a0a12"/>
  <path d="M50 8L84 27V66L50 85L16 66V27L50 8Z" fill="url(#slopCore)"/>
  <path d="M50 45L84 27V66L50 85V45Z" fill="url(#slopSide)" opacity="0.88"/>
  <path d="M16 27L50 45V85L16 66V27Z" fill="#16895f" opacity="0.78"/>
  <path d="M50 8L84 27L50 45L16 27L50 8Z" fill="#caff5b" opacity="0.94"/>
  <path d="M25 65C25 73 32 72 31 82C30 88 23 91 19 86C16 82 20 75 16 68L25 65Z" fill="#20d389"/>
  <path d="M70 62C68 70 75 72 72 81C70 87 62 87 60 81C59 76 65 71 63 65L70 62Z" fill="#f97316"/>
  <path d="M59 11L36 50H49L37 91L69 41H54L59 11Z" fill="url(#slopSlash)" stroke="#0a0a12" stroke-width="2.6" stroke-linejoin="round"/>
  <circle cx="27" cy="20" r="3" fill="#fff7ad"/>
  <circle cx="80" cy="48" r="2.4" fill="#48f0ff"/>
</svg>
